<mxfile host="app.diagrams.net" agent="Mozilla/5.0 (Windows NT 10.0; Win64; x64) AppleWebKit/537.36 (KHTML, like Gecko) Chrome/127.0.0.0 Safari/537.36" version="24.7.5">
  <diagram name="Page-1" id="OB2fLcyKaGO45a23Oha6">
    <mxGraphModel dx="1750" dy="942" grid="1" gridSize="10" guides="1" tooltips="1" connect="1" arrows="1" fold="1" page="1" pageScale="1" pageWidth="827" pageHeight="1169" math="0" shadow="0">
      <root>
        <mxCell id="0" />
        <mxCell id="1" parent="0" />
        <mxCell id="c2EdVHXL6vGl3Uh4w-Be-18" style="edgeStyle=orthogonalEdgeStyle;rounded=0;orthogonalLoop=1;jettySize=auto;html=1;exitX=1;exitY=0.5;exitDx=0;exitDy=0;entryX=0;entryY=0.5;entryDx=0;entryDy=0;endArrow=none;endFill=0;shape=link;" parent="1" source="c2EdVHXL6vGl3Uh4w-Be-4" target="c2EdVHXL6vGl3Uh4w-Be-17" edge="1">
          <mxGeometry relative="1" as="geometry" />
        </mxCell>
        <mxCell id="c2EdVHXL6vGl3Uh4w-Be-4" value="Rule" style="rounded=0;whiteSpace=wrap;html=1;" parent="1" vertex="1">
          <mxGeometry x="730" y="315" width="120" height="40" as="geometry" />
        </mxCell>
        <mxCell id="c2EdVHXL6vGl3Uh4w-Be-20" value="" style="edgeStyle=orthogonalEdgeStyle;rounded=0;orthogonalLoop=1;jettySize=auto;html=1;endArrow=none;endFill=0;exitX=1;exitY=0.5;exitDx=0;exitDy=0;" parent="1" source="c2EdVHXL6vGl3Uh4w-Be-17" target="c2EdVHXL6vGl3Uh4w-Be-19" edge="1">
          <mxGeometry relative="1" as="geometry">
            <mxPoint x="893.4613725490201" y="335.0588235294117" as="sourcePoint" />
          </mxGeometry>
        </mxCell>
        <mxCell id="c2EdVHXL6vGl3Uh4w-Be-17" value="has" style="rhombus;whiteSpace=wrap;html=1;" parent="1" vertex="1">
          <mxGeometry x="876.53" y="317.5" width="33.47" height="35" as="geometry" />
        </mxCell>
        <mxCell id="c2EdVHXL6vGl3Uh4w-Be-24" value="" style="edgeStyle=orthogonalEdgeStyle;rounded=0;orthogonalLoop=1;jettySize=auto;html=1;endArrow=none;endFill=0;entryX=0.5;entryY=0;entryDx=0;entryDy=0;" parent="1" source="c2EdVHXL6vGl3Uh4w-Be-19" target="c2EdVHXL6vGl3Uh4w-Be-23" edge="1">
          <mxGeometry relative="1" as="geometry">
            <mxPoint x="986.53" y="415" as="targetPoint" />
          </mxGeometry>
        </mxCell>
        <mxCell id="c2EdVHXL6vGl3Uh4w-Be-36" style="rounded=0;orthogonalLoop=1;jettySize=auto;html=1;exitX=0.5;exitY=0;exitDx=0;exitDy=0;entryX=0.5;entryY=1;entryDx=0;entryDy=0;endArrow=none;endFill=0;" parent="1" source="c2EdVHXL6vGl3Uh4w-Be-19" target="c2EdVHXL6vGl3Uh4w-Be-34" edge="1">
          <mxGeometry relative="1" as="geometry" />
        </mxCell>
        <mxCell id="c2EdVHXL6vGl3Uh4w-Be-19" value="TopLevelCondition" style="rounded=0;whiteSpace=wrap;html=1;" parent="1" vertex="1">
          <mxGeometry x="930" y="315" width="120" height="40" as="geometry" />
        </mxCell>
        <mxCell id="c2EdVHXL6vGl3Uh4w-Be-21" value="1" style="text;html=1;align=center;verticalAlign=middle;whiteSpace=wrap;rounded=0;" parent="1" vertex="1">
          <mxGeometry x="850" y="315" width="20" height="20" as="geometry" />
        </mxCell>
        <mxCell id="c2EdVHXL6vGl3Uh4w-Be-22" value="1" style="text;html=1;align=center;verticalAlign=middle;whiteSpace=wrap;rounded=0;" parent="1" vertex="1">
          <mxGeometry x="906.53" y="313.75" width="20" height="20" as="geometry" />
        </mxCell>
        <mxCell id="c2EdVHXL6vGl3Uh4w-Be-29" style="rounded=0;orthogonalLoop=1;jettySize=auto;html=1;exitX=0.5;exitY=1;exitDx=0;exitDy=0;entryX=0.5;entryY=0;entryDx=0;entryDy=0;endArrow=none;endFill=0;" parent="1" source="c2EdVHXL6vGl3Uh4w-Be-23" target="c2EdVHXL6vGl3Uh4w-Be-25" edge="1">
          <mxGeometry relative="1" as="geometry" />
        </mxCell>
        <mxCell id="c2EdVHXL6vGl3Uh4w-Be-30" style="rounded=0;orthogonalLoop=1;jettySize=auto;html=1;exitX=0.5;exitY=1;exitDx=0;exitDy=0;entryX=0.5;entryY=0;entryDx=0;entryDy=0;endArrow=none;endFill=0;" parent="1" source="c2EdVHXL6vGl3Uh4w-Be-23" target="c2EdVHXL6vGl3Uh4w-Be-26" edge="1">
          <mxGeometry relative="1" as="geometry" />
        </mxCell>
        <mxCell id="c2EdVHXL6vGl3Uh4w-Be-31" style="rounded=0;orthogonalLoop=1;jettySize=auto;html=1;exitX=0.5;exitY=1;exitDx=0;exitDy=0;entryX=0.5;entryY=0;entryDx=0;entryDy=0;endArrow=none;endFill=0;" parent="1" source="c2EdVHXL6vGl3Uh4w-Be-23" target="c2EdVHXL6vGl3Uh4w-Be-27" edge="1">
          <mxGeometry relative="1" as="geometry" />
        </mxCell>
        <mxCell id="c2EdVHXL6vGl3Uh4w-Be-32" style="rounded=0;orthogonalLoop=1;jettySize=auto;html=1;exitX=0.5;exitY=1;exitDx=0;exitDy=0;entryX=0.5;entryY=0;entryDx=0;entryDy=0;endArrow=none;endFill=0;" parent="1" source="c2EdVHXL6vGl3Uh4w-Be-23" target="c2EdVHXL6vGl3Uh4w-Be-28" edge="1">
          <mxGeometry relative="1" as="geometry" />
        </mxCell>
        <mxCell id="c2EdVHXL6vGl3Uh4w-Be-23" value="d" style="ellipse;whiteSpace=wrap;html=1;aspect=fixed;" parent="1" vertex="1">
          <mxGeometry x="975" y="460" width="30" height="30" as="geometry" />
        </mxCell>
        <mxCell id="c2EdVHXL6vGl3Uh4w-Be-58" style="edgeStyle=orthogonalEdgeStyle;rounded=0;orthogonalLoop=1;jettySize=auto;html=1;exitX=0.5;exitY=1;exitDx=0;exitDy=0;entryX=0.5;entryY=1;entryDx=0;entryDy=0;endArrow=none;endFill=0;" parent="1" source="c2EdVHXL6vGl3Uh4w-Be-25" target="c2EdVHXL6vGl3Uh4w-Be-101" edge="1">
          <mxGeometry relative="1" as="geometry">
            <mxPoint x="1486" y="410" as="targetPoint" />
            <Array as="points">
              <mxPoint x="780" y="680" />
              <mxPoint x="1377" y="680" />
            </Array>
          </mxGeometry>
        </mxCell>
        <mxCell id="c2EdVHXL6vGl3Uh4w-Be-25" value="AllCondition" style="rounded=0;whiteSpace=wrap;html=1;" parent="1" vertex="1">
          <mxGeometry x="720" y="560" width="120" height="40" as="geometry" />
        </mxCell>
        <mxCell id="c2EdVHXL6vGl3Uh4w-Be-57" style="edgeStyle=orthogonalEdgeStyle;rounded=0;orthogonalLoop=1;jettySize=auto;html=1;exitX=0.5;exitY=1;exitDx=0;exitDy=0;entryX=0.5;entryY=1;entryDx=0;entryDy=0;endArrow=none;endFill=0;" parent="1" source="c2EdVHXL6vGl3Uh4w-Be-26" target="c2EdVHXL6vGl3Uh4w-Be-100" edge="1">
          <mxGeometry relative="1" as="geometry">
            <mxPoint x="1416" y="410" as="targetPoint" />
            <Array as="points">
              <mxPoint x="920" y="660" />
              <mxPoint x="1344" y="660" />
              <mxPoint x="1344" y="408" />
            </Array>
          </mxGeometry>
        </mxCell>
        <mxCell id="c2EdVHXL6vGl3Uh4w-Be-26" value="AnyCondition" style="rounded=0;whiteSpace=wrap;html=1;" parent="1" vertex="1">
          <mxGeometry x="860" y="560" width="120" height="40" as="geometry" />
        </mxCell>
        <mxCell id="c2EdVHXL6vGl3Uh4w-Be-56" style="edgeStyle=orthogonalEdgeStyle;rounded=0;orthogonalLoop=1;jettySize=auto;html=1;exitX=0.5;exitY=1;exitDx=0;exitDy=0;entryX=0.5;entryY=1;entryDx=0;entryDy=0;endArrow=none;endFill=0;shape=link;" parent="1" source="c2EdVHXL6vGl3Uh4w-Be-27" target="c2EdVHXL6vGl3Uh4w-Be-98" edge="1">
          <mxGeometry relative="1" as="geometry">
            <mxPoint x="1346" y="410" as="targetPoint" />
            <Array as="points">
              <mxPoint x="1060" y="640" />
              <mxPoint x="1310" y="640" />
            </Array>
          </mxGeometry>
        </mxCell>
        <mxCell id="c2EdVHXL6vGl3Uh4w-Be-27" value="NotCondition" style="rounded=0;whiteSpace=wrap;html=1;" parent="1" vertex="1">
          <mxGeometry x="1000" y="560" width="120" height="40" as="geometry" />
        </mxCell>
        <mxCell id="c2EdVHXL6vGl3Uh4w-Be-55" style="edgeStyle=orthogonalEdgeStyle;rounded=0;orthogonalLoop=1;jettySize=auto;html=1;exitX=0.5;exitY=1;exitDx=0;exitDy=0;entryX=0.5;entryY=1;entryDx=0;entryDy=0;endArrow=none;endFill=0;shape=link;" parent="1" source="c2EdVHXL6vGl3Uh4w-Be-28" target="c2EdVHXL6vGl3Uh4w-Be-96" edge="1">
          <mxGeometry relative="1" as="geometry">
            <mxPoint x="1276" y="410" as="targetPoint" />
          </mxGeometry>
        </mxCell>
        <mxCell id="c2EdVHXL6vGl3Uh4w-Be-28" value="ConditionReference" style="rounded=0;whiteSpace=wrap;html=1;" parent="1" vertex="1">
          <mxGeometry x="1135" y="560" width="120" height="40" as="geometry" />
        </mxCell>
        <mxCell id="c2EdVHXL6vGl3Uh4w-Be-35" value="" style="edgeStyle=orthogonalEdgeStyle;rounded=0;orthogonalLoop=1;jettySize=auto;html=1;endArrow=none;endFill=0;" parent="1" source="c2EdVHXL6vGl3Uh4w-Be-33" target="c2EdVHXL6vGl3Uh4w-Be-34" edge="1">
          <mxGeometry relative="1" as="geometry" />
        </mxCell>
        <mxCell id="c2EdVHXL6vGl3Uh4w-Be-78" style="edgeStyle=orthogonalEdgeStyle;rounded=0;orthogonalLoop=1;jettySize=auto;html=1;exitX=0.75;exitY=0;exitDx=0;exitDy=0;entryX=0.5;entryY=0;entryDx=0;entryDy=0;endArrow=none;endFill=0;" parent="1" source="c2EdVHXL6vGl3Uh4w-Be-33" target="c2EdVHXL6vGl3Uh4w-Be-100" edge="1">
          <mxGeometry relative="1" as="geometry">
            <mxPoint x="1416" y="350" as="targetPoint" />
            <Array as="points">
              <mxPoint x="1096" y="170" />
              <mxPoint x="1344" y="170" />
            </Array>
          </mxGeometry>
        </mxCell>
        <mxCell id="c2EdVHXL6vGl3Uh4w-Be-79" style="edgeStyle=orthogonalEdgeStyle;rounded=0;orthogonalLoop=1;jettySize=auto;html=1;exitX=0.25;exitY=0;exitDx=0;exitDy=0;entryX=0.5;entryY=0;entryDx=0;entryDy=0;endArrow=none;endFill=0;" parent="1" source="c2EdVHXL6vGl3Uh4w-Be-33" target="c2EdVHXL6vGl3Uh4w-Be-101" edge="1">
          <mxGeometry relative="1" as="geometry">
            <mxPoint x="1486" y="350" as="targetPoint" />
            <Array as="points">
              <mxPoint x="1037" y="150" />
              <mxPoint x="1377" y="150" />
            </Array>
          </mxGeometry>
        </mxCell>
        <mxCell id="c2EdVHXL6vGl3Uh4w-Be-90" style="rounded=0;orthogonalLoop=1;jettySize=auto;html=1;exitX=0;exitY=0.5;exitDx=0;exitDy=0;entryX=1;entryY=0.5;entryDx=0;entryDy=0;endArrow=none;endFill=0;" parent="1" source="c2EdVHXL6vGl3Uh4w-Be-33" target="c2EdVHXL6vGl3Uh4w-Be-88" edge="1">
          <mxGeometry relative="1" as="geometry" />
        </mxCell>
        <mxCell id="c2EdVHXL6vGl3Uh4w-Be-33" value="NestedCondition" style="rounded=0;whiteSpace=wrap;html=1;" parent="1" vertex="1">
          <mxGeometry x="1006.53" y="197" width="120" height="40" as="geometry" />
        </mxCell>
        <mxCell id="c2EdVHXL6vGl3Uh4w-Be-46" style="rounded=0;orthogonalLoop=1;jettySize=auto;html=1;exitX=0.5;exitY=1;exitDx=0;exitDy=0;entryX=0.5;entryY=0;entryDx=0;entryDy=0;endArrow=none;endFill=0;" parent="1" source="c2EdVHXL6vGl3Uh4w-Be-34" target="c2EdVHXL6vGl3Uh4w-Be-37" edge="1">
          <mxGeometry relative="1" as="geometry" />
        </mxCell>
        <mxCell id="c2EdVHXL6vGl3Uh4w-Be-34" value="d" style="ellipse;whiteSpace=wrap;html=1;aspect=fixed;" parent="1" vertex="1">
          <mxGeometry x="1051.53" y="248.75" width="30" height="30" as="geometry" />
        </mxCell>
        <mxCell id="c2EdVHXL6vGl3Uh4w-Be-94" style="edgeStyle=orthogonalEdgeStyle;rounded=0;orthogonalLoop=1;jettySize=auto;html=1;exitX=0.5;exitY=1;exitDx=0;exitDy=0;entryX=0.5;entryY=0;entryDx=0;entryDy=0;endArrow=none;endFill=0;" parent="1" source="c2EdVHXL6vGl3Uh4w-Be-37" target="c2EdVHXL6vGl3Uh4w-Be-93" edge="1">
          <mxGeometry relative="1" as="geometry" />
        </mxCell>
        <mxCell id="c2EdVHXL6vGl3Uh4w-Be-37" value="ConditionProperties" style="rounded=0;whiteSpace=wrap;html=1;" parent="1" vertex="1">
          <mxGeometry x="1076.53" y="315" width="120" height="40" as="geometry" />
        </mxCell>
        <mxCell id="c2EdVHXL6vGl3Uh4w-Be-44" style="rounded=0;orthogonalLoop=1;jettySize=auto;html=1;exitX=0.5;exitY=0;exitDx=0;exitDy=0;entryX=0.25;entryY=1;entryDx=0;entryDy=0;endArrow=none;endFill=0;" parent="1" source="c2EdVHXL6vGl3Uh4w-Be-40" target="c2EdVHXL6vGl3Uh4w-Be-37" edge="1">
          <mxGeometry relative="1" as="geometry" />
        </mxCell>
        <mxCell id="c2EdVHXL6vGl3Uh4w-Be-40" value="operator" style="ellipse;whiteSpace=wrap;html=1;" parent="1" vertex="1">
          <mxGeometry x="1046.53" y="375" width="50" height="30" as="geometry" />
        </mxCell>
        <mxCell id="c2EdVHXL6vGl3Uh4w-Be-41" style="edgeStyle=orthogonalEdgeStyle;rounded=0;orthogonalLoop=1;jettySize=auto;html=1;exitX=0.5;exitY=1;exitDx=0;exitDy=0;" parent="1" source="c2EdVHXL6vGl3Uh4w-Be-40" target="c2EdVHXL6vGl3Uh4w-Be-40" edge="1">
          <mxGeometry relative="1" as="geometry" />
        </mxCell>
        <mxCell id="c2EdVHXL6vGl3Uh4w-Be-45" style="rounded=0;orthogonalLoop=1;jettySize=auto;html=1;exitX=0.5;exitY=0;exitDx=0;exitDy=0;entryX=0.75;entryY=1;entryDx=0;entryDy=0;endArrow=none;endFill=0;" parent="1" source="c2EdVHXL6vGl3Uh4w-Be-42" target="c2EdVHXL6vGl3Uh4w-Be-37" edge="1">
          <mxGeometry relative="1" as="geometry" />
        </mxCell>
        <mxCell id="c2EdVHXL6vGl3Uh4w-Be-42" value="value" style="ellipse;whiteSpace=wrap;html=1;" parent="1" vertex="1">
          <mxGeometry x="1176.53" y="375" width="50" height="30" as="geometry" />
        </mxCell>
        <mxCell id="c2EdVHXL6vGl3Uh4w-Be-59" value="1" style="text;html=1;align=center;verticalAlign=middle;whiteSpace=wrap;rounded=0;" parent="1" vertex="1">
          <mxGeometry x="1126.53" y="228" width="13.47" height="10" as="geometry" />
        </mxCell>
        <mxCell id="c2EdVHXL6vGl3Uh4w-Be-61" value="N" style="text;html=1;align=center;verticalAlign=middle;whiteSpace=wrap;rounded=0;" parent="1" vertex="1">
          <mxGeometry x="1015" y="176" width="20" height="20" as="geometry" />
        </mxCell>
        <mxCell id="c2EdVHXL6vGl3Uh4w-Be-62" value="N" style="text;html=1;align=center;verticalAlign=middle;whiteSpace=wrap;rounded=0;" parent="1" vertex="1">
          <mxGeometry x="1076.53" y="176" width="20" height="20" as="geometry" />
        </mxCell>
        <mxCell id="c2EdVHXL6vGl3Uh4w-Be-63" value="1" style="text;html=1;align=center;verticalAlign=middle;whiteSpace=wrap;rounded=0;" parent="1" vertex="1">
          <mxGeometry x="1170" y="600" width="20" height="20" as="geometry" />
        </mxCell>
        <mxCell id="c2EdVHXL6vGl3Uh4w-Be-64" value="1" style="text;html=1;align=center;verticalAlign=middle;whiteSpace=wrap;rounded=0;" parent="1" vertex="1">
          <mxGeometry x="1035" y="600" width="20" height="20" as="geometry" />
        </mxCell>
        <mxCell id="c2EdVHXL6vGl3Uh4w-Be-65" value="1" style="text;html=1;align=center;verticalAlign=middle;whiteSpace=wrap;rounded=0;" parent="1" vertex="1">
          <mxGeometry x="900" y="600" width="20" height="20" as="geometry" />
        </mxCell>
        <mxCell id="c2EdVHXL6vGl3Uh4w-Be-66" value="1" style="text;html=1;align=center;verticalAlign=middle;whiteSpace=wrap;rounded=0;" parent="1" vertex="1">
          <mxGeometry x="760" y="600" width="20" height="20" as="geometry" />
        </mxCell>
        <mxCell id="c2EdVHXL6vGl3Uh4w-Be-67" value="" style="endArrow=none;html=1;rounded=0;curved=1;" parent="1" edge="1">
          <mxGeometry width="50" height="50" relative="1" as="geometry">
            <mxPoint x="1163.06" y="248.75" as="sourcePoint" />
            <mxPoint x="1106.53" y="123.75" as="targetPoint" />
            <Array as="points">
              <mxPoint x="1196.53" y="178.75" />
            </Array>
          </mxGeometry>
        </mxCell>
        <mxCell id="c2EdVHXL6vGl3Uh4w-Be-68" value="Question" style="rounded=0;whiteSpace=wrap;html=1;" parent="1" vertex="1">
          <mxGeometry x="1076.53" y="440" width="120" height="40" as="geometry" />
        </mxCell>
        <mxCell id="c2EdVHXL6vGl3Uh4w-Be-76" value="1" style="text;html=1;align=center;verticalAlign=middle;whiteSpace=wrap;rounded=0;" parent="1" vertex="1">
          <mxGeometry x="1126.53" y="208" width="13.47" height="10" as="geometry" />
        </mxCell>
        <mxCell id="c2EdVHXL6vGl3Uh4w-Be-86" value="1" style="text;html=1;align=center;verticalAlign=middle;whiteSpace=wrap;rounded=0;" parent="1" vertex="1">
          <mxGeometry x="1135" y="353.75" width="20" height="20" as="geometry" />
        </mxCell>
        <mxCell id="c2EdVHXL6vGl3Uh4w-Be-87" value="1" style="text;html=1;align=center;verticalAlign=middle;whiteSpace=wrap;rounded=0;" parent="1" vertex="1">
          <mxGeometry x="1135" y="420" width="20" height="20" as="geometry" />
        </mxCell>
        <mxCell id="c2EdVHXL6vGl3Uh4w-Be-88" value="&lt;u&gt;Id&lt;/u&gt;" style="ellipse;whiteSpace=wrap;html=1;" parent="1" vertex="1">
          <mxGeometry x="926.53" y="198.25" width="70" height="37.5" as="geometry" />
        </mxCell>
        <mxCell id="c2EdVHXL6vGl3Uh4w-Be-95" style="edgeStyle=orthogonalEdgeStyle;rounded=0;orthogonalLoop=1;jettySize=auto;html=1;exitX=0.5;exitY=1;exitDx=0;exitDy=0;entryX=0.5;entryY=0;entryDx=0;entryDy=0;endArrow=none;endFill=0;" parent="1" source="c2EdVHXL6vGl3Uh4w-Be-93" target="c2EdVHXL6vGl3Uh4w-Be-68" edge="1">
          <mxGeometry relative="1" as="geometry" />
        </mxCell>
        <mxCell id="c2EdVHXL6vGl3Uh4w-Be-93" value="fact" style="rhombus;whiteSpace=wrap;html=1;" parent="1" vertex="1">
          <mxGeometry x="1119.79" y="381.25" width="33.47" height="35" as="geometry" />
        </mxCell>
        <mxCell id="c2EdVHXL6vGl3Uh4w-Be-97" style="edgeStyle=orthogonalEdgeStyle;rounded=0;orthogonalLoop=1;jettySize=auto;html=1;exitX=0.5;exitY=0;exitDx=0;exitDy=0;entryX=1;entryY=0.75;entryDx=0;entryDy=0;endArrow=none;endFill=0;" parent="1" source="c2EdVHXL6vGl3Uh4w-Be-96" target="c2EdVHXL6vGl3Uh4w-Be-33" edge="1">
          <mxGeometry relative="1" as="geometry" />
        </mxCell>
        <mxCell id="c2EdVHXL6vGl3Uh4w-Be-96" value="ref" style="rhombus;whiteSpace=wrap;html=1;" parent="1" vertex="1">
          <mxGeometry x="1260" y="372.5" width="33.47" height="35" as="geometry" />
        </mxCell>
        <mxCell id="c2EdVHXL6vGl3Uh4w-Be-99" style="edgeStyle=orthogonalEdgeStyle;rounded=0;orthogonalLoop=1;jettySize=auto;html=1;exitX=0.5;exitY=0;exitDx=0;exitDy=0;entryX=1;entryY=0.25;entryDx=0;entryDy=0;endArrow=none;endFill=0;" parent="1" source="c2EdVHXL6vGl3Uh4w-Be-98" target="c2EdVHXL6vGl3Uh4w-Be-33" edge="1">
          <mxGeometry relative="1" as="geometry" />
        </mxCell>
        <mxCell id="c2EdVHXL6vGl3Uh4w-Be-98" value="not" style="rhombus;whiteSpace=wrap;html=1;" parent="1" vertex="1">
          <mxGeometry x="1293.47" y="372.5" width="33.47" height="35" as="geometry" />
        </mxCell>
        <mxCell id="c2EdVHXL6vGl3Uh4w-Be-100" value="any" style="rhombus;whiteSpace=wrap;html=1;" parent="1" vertex="1">
          <mxGeometry x="1326.94" y="372.5" width="33.47" height="35" as="geometry" />
        </mxCell>
        <mxCell id="c2EdVHXL6vGl3Uh4w-Be-101" value="all" style="rhombus;whiteSpace=wrap;html=1;" parent="1" vertex="1">
          <mxGeometry x="1360.41" y="372.5" width="33.47" height="35" as="geometry" />
        </mxCell>
      </root>
    </mxGraphModel>
  </diagram>
</mxfile>
